<mxfile host="app.diagrams.net" modified="2020-03-14T12:48:34.205Z" agent="Mozilla/5.0 (Windows NT 10.0; Win64; x64) AppleWebKit/537.36 (KHTML, like Gecko) Chrome/80.0.3987.132 Safari/537.36" etag="ftRVcuj66nqRwFigSHDk" version="12.8.4" type="github">
  <diagram id="K0m3Yvn-BNH7TDLMjK33" name="Page-1">
    <mxGraphModel dx="1422" dy="762" grid="1" gridSize="10" guides="1" tooltips="1" connect="1" arrows="1" fold="1" page="1" pageScale="1" pageWidth="850" pageHeight="1100" math="0" shadow="0">
      <root>
        <mxCell id="0" />
        <mxCell id="1" parent="0" />
        <mxCell id="szR2yDTY2ZWLf-qTvKoL-5" value="" style="rounded=0;whiteSpace=wrap;html=1;fillColor=#66B2FF;" parent="1" vertex="1">
          <mxGeometry x="240" y="80" width="320" height="440" as="geometry" />
        </mxCell>
        <mxCell id="szR2yDTY2ZWLf-qTvKoL-1" value="User" style="shape=umlActor;verticalLabelPosition=bottom;labelBackgroundColor=#ffffff;verticalAlign=top;html=1;outlineConnect=0;" parent="1" vertex="1">
          <mxGeometry x="120" y="200" width="30" height="60" as="geometry" />
        </mxCell>
        <mxCell id="szR2yDTY2ZWLf-qTvKoL-6" value="System" style="text;html=1;strokeColor=none;fillColor=none;align=center;verticalAlign=middle;whiteSpace=wrap;rounded=0;" parent="1" vertex="1">
          <mxGeometry x="380" y="90" width="40" height="20" as="geometry" />
        </mxCell>
        <mxCell id="szR2yDTY2ZWLf-qTvKoL-7" value="Login" style="ellipse;whiteSpace=wrap;html=1;fillColor=#66B2FF;" parent="1" vertex="1">
          <mxGeometry x="290" y="160" width="70" height="40" as="geometry" />
        </mxCell>
        <mxCell id="szR2yDTY2ZWLf-qTvKoL-8" value="" style="endArrow=none;html=1;exitX=0.5;exitY=0.5;exitDx=0;exitDy=0;exitPerimeter=0;entryX=0;entryY=0.5;entryDx=0;entryDy=0;rounded=0;" parent="1" source="szR2yDTY2ZWLf-qTvKoL-1" target="szR2yDTY2ZWLf-qTvKoL-7" edge="1">
          <mxGeometry width="50" height="50" relative="1" as="geometry">
            <mxPoint x="180" y="280" as="sourcePoint" />
            <mxPoint x="230" y="230" as="targetPoint" />
            <Array as="points">
              <mxPoint x="200" y="230" />
              <mxPoint x="200" y="180" />
            </Array>
          </mxGeometry>
        </mxCell>
        <mxCell id="szR2yDTY2ZWLf-qTvKoL-9" value="Invalid&lt;br&gt;Login" style="ellipse;whiteSpace=wrap;html=1;fillColor=#66B2FF;" parent="1" vertex="1">
          <mxGeometry x="425" y="160" width="70" height="40" as="geometry" />
        </mxCell>
        <mxCell id="szR2yDTY2ZWLf-qTvKoL-10" value="" style="endArrow=none;dashed=1;html=1;exitX=1;exitY=0.5;exitDx=0;exitDy=0;entryX=0;entryY=0.5;entryDx=0;entryDy=0;startArrow=open;startFill=0;" parent="1" source="szR2yDTY2ZWLf-qTvKoL-7" target="szR2yDTY2ZWLf-qTvKoL-9" edge="1">
          <mxGeometry width="50" height="50" relative="1" as="geometry">
            <mxPoint x="400" y="420" as="sourcePoint" />
            <mxPoint x="450" y="370" as="targetPoint" />
          </mxGeometry>
        </mxCell>
        <mxCell id="szR2yDTY2ZWLf-qTvKoL-11" value="&amp;lt;&amp;lt;extends&amp;gt;&amp;gt;" style="text;html=1;strokeColor=none;fillColor=none;align=center;verticalAlign=middle;whiteSpace=wrap;rounded=0;fontSize=7;" parent="1" vertex="1">
          <mxGeometry x="370" y="160" width="40" height="20" as="geometry" />
        </mxCell>
        <mxCell id="szR2yDTY2ZWLf-qTvKoL-12" value="View Clubs" style="ellipse;whiteSpace=wrap;html=1;fillColor=#66B2FF;" parent="1" vertex="1">
          <mxGeometry x="290" y="220" width="70" height="40" as="geometry" />
        </mxCell>
        <mxCell id="szR2yDTY2ZWLf-qTvKoL-13" value="View Society" style="ellipse;whiteSpace=wrap;html=1;fillColor=#66B2FF;" parent="1" vertex="1">
          <mxGeometry x="290" y="270" width="70" height="40" as="geometry" />
        </mxCell>
        <mxCell id="szR2yDTY2ZWLf-qTvKoL-14" value="View Interest Groups" style="ellipse;whiteSpace=wrap;html=1;fillColor=#66B2FF;" parent="1" vertex="1">
          <mxGeometry x="275" y="320" width="100" height="60" as="geometry" />
        </mxCell>
        <mxCell id="szR2yDTY2ZWLf-qTvKoL-15" value="" style="endArrow=none;html=1;fontSize=10;entryX=0;entryY=0.5;entryDx=0;entryDy=0;rounded=0;" parent="1" target="szR2yDTY2ZWLf-qTvKoL-14" edge="1">
          <mxGeometry width="50" height="50" relative="1" as="geometry">
            <mxPoint x="200" y="230" as="sourcePoint" />
            <mxPoint x="450" y="370" as="targetPoint" />
            <Array as="points">
              <mxPoint x="200" y="350" />
            </Array>
          </mxGeometry>
        </mxCell>
        <mxCell id="szR2yDTY2ZWLf-qTvKoL-16" value="" style="endArrow=none;html=1;fontSize=10;exitX=0;exitY=0.5;exitDx=0;exitDy=0;" parent="1" source="szR2yDTY2ZWLf-qTvKoL-13" edge="1">
          <mxGeometry width="50" height="50" relative="1" as="geometry">
            <mxPoint x="400" y="420" as="sourcePoint" />
            <mxPoint x="200" y="290" as="targetPoint" />
          </mxGeometry>
        </mxCell>
        <mxCell id="szR2yDTY2ZWLf-qTvKoL-17" value="" style="endArrow=none;html=1;fontSize=10;exitX=0;exitY=0.5;exitDx=0;exitDy=0;" parent="1" source="szR2yDTY2ZWLf-qTvKoL-12" edge="1">
          <mxGeometry width="50" height="50" relative="1" as="geometry">
            <mxPoint x="400" y="420" as="sourcePoint" />
            <mxPoint x="200" y="240" as="targetPoint" />
          </mxGeometry>
        </mxCell>
        <mxCell id="szR2yDTY2ZWLf-qTvKoL-18" value="&lt;font style=&quot;font-size: 12px&quot;&gt;&lt;font style=&quot;font-size: 12px&quot;&gt;S&lt;/font&gt;earch Users&lt;/font&gt;" style="ellipse;whiteSpace=wrap;html=1;fillColor=#66B2FF;fontSize=10;" parent="1" vertex="1">
          <mxGeometry x="440" y="215" width="80" height="50" as="geometry" />
        </mxCell>
        <mxCell id="szR2yDTY2ZWLf-qTvKoL-19" value="" style="endArrow=open;html=1;fontSize=10;exitX=1;exitY=1;exitDx=0;exitDy=0;entryX=0;entryY=0;entryDx=0;entryDy=0;dashed=1;endFill=0;" parent="1" source="szR2yDTY2ZWLf-qTvKoL-7" target="szR2yDTY2ZWLf-qTvKoL-18" edge="1">
          <mxGeometry width="50" height="50" relative="1" as="geometry">
            <mxPoint x="400" y="420" as="sourcePoint" />
            <mxPoint x="450" y="370" as="targetPoint" />
          </mxGeometry>
        </mxCell>
        <mxCell id="szR2yDTY2ZWLf-qTvKoL-20" value="&amp;lt;&amp;lt;Includes&amp;gt;&amp;gt;" style="text;html=1;strokeColor=none;fillColor=none;align=center;verticalAlign=middle;whiteSpace=wrap;rounded=0;fontSize=7;rotation=15;" parent="1" vertex="1">
          <mxGeometry x="400" y="195" width="40" height="20" as="geometry" />
        </mxCell>
        <mxCell id="szR2yDTY2ZWLf-qTvKoL-21" value="&lt;font style=&quot;font-size: 12px&quot;&gt;&lt;font style=&quot;font-size: 12px&quot;&gt;S&lt;/font&gt;earch CSI&lt;/font&gt;" style="ellipse;whiteSpace=wrap;html=1;fillColor=#66B2FF;fontSize=10;" parent="1" vertex="1">
          <mxGeometry x="470" y="300" width="80" height="50" as="geometry" />
        </mxCell>
        <mxCell id="szR2yDTY2ZWLf-qTvKoL-22" value="" style="endArrow=open;dashed=1;html=1;fontSize=10;exitX=1;exitY=0.5;exitDx=0;exitDy=0;entryX=0.5;entryY=0;entryDx=0;entryDy=0;endFill=0;" parent="1" source="szR2yDTY2ZWLf-qTvKoL-12" target="szR2yDTY2ZWLf-qTvKoL-21" edge="1">
          <mxGeometry width="50" height="50" relative="1" as="geometry">
            <mxPoint x="330" y="310" as="sourcePoint" />
            <mxPoint x="380" y="260" as="targetPoint" />
          </mxGeometry>
        </mxCell>
        <mxCell id="szR2yDTY2ZWLf-qTvKoL-23" value="&amp;lt;&amp;lt;Includes&amp;gt;&amp;gt;" style="text;html=1;strokeColor=none;fillColor=none;align=center;verticalAlign=middle;whiteSpace=wrap;rounded=0;fontSize=7;rotation=20;" parent="1" vertex="1">
          <mxGeometry x="460" y="270" width="40" height="20" as="geometry" />
        </mxCell>
        <mxCell id="szR2yDTY2ZWLf-qTvKoL-24" value="" style="endArrow=open;dashed=1;html=1;fontSize=10;exitX=1;exitY=0.5;exitDx=0;exitDy=0;entryX=0;entryY=0.5;entryDx=0;entryDy=0;endFill=0;" parent="1" source="szR2yDTY2ZWLf-qTvKoL-13" target="szR2yDTY2ZWLf-qTvKoL-21" edge="1">
          <mxGeometry width="50" height="50" relative="1" as="geometry">
            <mxPoint x="330" y="310" as="sourcePoint" />
            <mxPoint x="380" y="260" as="targetPoint" />
          </mxGeometry>
        </mxCell>
        <mxCell id="szR2yDTY2ZWLf-qTvKoL-25" value="&amp;lt;&amp;lt;Includes&amp;gt;&amp;gt;" style="text;html=1;strokeColor=none;fillColor=none;align=center;verticalAlign=middle;whiteSpace=wrap;rounded=0;fontSize=7;rotation=20;" parent="1" vertex="1">
          <mxGeometry x="425" y="300" width="40" height="20" as="geometry" />
        </mxCell>
        <mxCell id="szR2yDTY2ZWLf-qTvKoL-26" value="" style="endArrow=open;dashed=1;html=1;fontSize=9;exitX=1;exitY=0.5;exitDx=0;exitDy=0;entryX=0.5;entryY=1;entryDx=0;entryDy=0;endFill=0;" parent="1" source="szR2yDTY2ZWLf-qTvKoL-14" target="szR2yDTY2ZWLf-qTvKoL-21" edge="1">
          <mxGeometry width="50" height="50" relative="1" as="geometry">
            <mxPoint x="510" y="430" as="sourcePoint" />
            <mxPoint x="560" y="380" as="targetPoint" />
          </mxGeometry>
        </mxCell>
        <mxCell id="szR2yDTY2ZWLf-qTvKoL-28" value="View&lt;br&gt;Events" style="ellipse;whiteSpace=wrap;html=1;fillColor=#66B2FF;" parent="1" vertex="1">
          <mxGeometry x="365" y="400" width="70" height="40" as="geometry" />
        </mxCell>
        <mxCell id="szR2yDTY2ZWLf-qTvKoL-29" value="" style="endArrow=none;dashed=1;html=1;fontSize=9;exitX=1;exitY=0;exitDx=0;exitDy=0;startArrow=open;startFill=0;" parent="1" source="szR2yDTY2ZWLf-qTvKoL-12" edge="1">
          <mxGeometry width="50" height="50" relative="1" as="geometry">
            <mxPoint x="450" y="420" as="sourcePoint" />
            <mxPoint x="400" y="400" as="targetPoint" />
            <Array as="points">
              <mxPoint x="400" y="226" />
            </Array>
          </mxGeometry>
        </mxCell>
        <mxCell id="szR2yDTY2ZWLf-qTvKoL-30" value="&amp;lt;&amp;lt;Extends&amp;gt;&amp;gt;" style="text;html=1;strokeColor=none;fillColor=none;align=center;verticalAlign=middle;whiteSpace=wrap;rounded=0;fontSize=7;rotation=-90;" parent="1" vertex="1">
          <mxGeometry x="375" y="265" width="40" height="20" as="geometry" />
        </mxCell>
        <mxCell id="szR2yDTY2ZWLf-qTvKoL-32" value="" style="endArrow=open;dashed=1;html=1;fontSize=7;entryX=1;entryY=1;entryDx=0;entryDy=0;exitX=0.348;exitY=0.022;exitDx=0;exitDy=0;exitPerimeter=0;endFill=0;rounded=1;" parent="1" source="szR2yDTY2ZWLf-qTvKoL-28" target="szR2yDTY2ZWLf-qTvKoL-13" edge="1">
          <mxGeometry width="50" height="50" relative="1" as="geometry">
            <mxPoint x="160" y="440" as="sourcePoint" />
            <mxPoint x="210" y="390" as="targetPoint" />
            <Array as="points">
              <mxPoint x="389" y="304" />
            </Array>
          </mxGeometry>
        </mxCell>
        <mxCell id="szR2yDTY2ZWLf-qTvKoL-33" value="&amp;lt;&amp;lt;Extends&amp;gt;&amp;gt;" style="text;html=1;strokeColor=none;fillColor=none;align=center;verticalAlign=middle;whiteSpace=wrap;rounded=0;fontSize=7;rotation=-90;" parent="1" vertex="1">
          <mxGeometry x="365" y="315" width="40" height="20" as="geometry" />
        </mxCell>
        <mxCell id="szR2yDTY2ZWLf-qTvKoL-34" value="" style="endArrow=open;dashed=1;html=1;fontSize=7;entryX=0.5;entryY=1;entryDx=0;entryDy=0;exitX=0;exitY=0.5;exitDx=0;exitDy=0;startArrow=none;startFill=0;endFill=0;" parent="1" source="szR2yDTY2ZWLf-qTvKoL-28" target="szR2yDTY2ZWLf-qTvKoL-14" edge="1">
          <mxGeometry width="50" height="50" relative="1" as="geometry">
            <mxPoint x="275" y="470" as="sourcePoint" />
            <mxPoint x="325" y="420" as="targetPoint" />
            <Array as="points">
              <mxPoint x="325" y="420" />
            </Array>
          </mxGeometry>
        </mxCell>
        <mxCell id="szR2yDTY2ZWLf-qTvKoL-36" value="&amp;lt;&amp;lt;extends&amp;gt;&amp;gt;" style="text;html=1;strokeColor=none;fillColor=none;align=center;verticalAlign=middle;whiteSpace=wrap;rounded=0;fontSize=7;rotation=0;" parent="1" vertex="1">
          <mxGeometry x="325" y="400" width="40" height="20" as="geometry" />
        </mxCell>
        <mxCell id="szR2yDTY2ZWLf-qTvKoL-37" value="&lt;font style=&quot;font-size: 12px&quot;&gt;&lt;font style=&quot;font-size: 12px&quot;&gt;S&lt;/font&gt;earch&lt;br&gt;Events&lt;br&gt;&lt;/font&gt;" style="ellipse;whiteSpace=wrap;html=1;fillColor=#66B2FF;fontSize=10;" parent="1" vertex="1">
          <mxGeometry x="465" y="360" width="80" height="50" as="geometry" />
        </mxCell>
        <mxCell id="szR2yDTY2ZWLf-qTvKoL-38" value="" style="endArrow=open;dashed=1;html=1;fontSize=7;exitX=1;exitY=0.5;exitDx=0;exitDy=0;entryX=0.5;entryY=1;entryDx=0;entryDy=0;startArrow=none;startFill=0;endFill=0;" parent="1" source="szR2yDTY2ZWLf-qTvKoL-28" target="szR2yDTY2ZWLf-qTvKoL-37" edge="1">
          <mxGeometry width="50" height="50" relative="1" as="geometry">
            <mxPoint x="450" y="490" as="sourcePoint" />
            <mxPoint x="500" y="440" as="targetPoint" />
            <Array as="points">
              <mxPoint x="505" y="420" />
            </Array>
          </mxGeometry>
        </mxCell>
        <mxCell id="szR2yDTY2ZWLf-qTvKoL-39" value="&amp;lt;&amp;lt;Includes&amp;gt;&amp;gt;" style="text;html=1;strokeColor=none;fillColor=none;align=center;verticalAlign=middle;whiteSpace=wrap;rounded=0;fontSize=7;rotation=0;" parent="1" vertex="1">
          <mxGeometry x="440" y="400" width="40" height="20" as="geometry" />
        </mxCell>
      </root>
    </mxGraphModel>
  </diagram>
</mxfile>
